<svg width="64" height="64" viewBox="0 0 64 64" fill="none" xmlns="http://www.w3.org/2000/svg">
  <rect x="6" y="6" width="52" height="52" rx="14" fill="#33CEE5" />

  <!-- Cat head (simplified, solid) -->
  <path
    d="M23.5 27.5L21 20.5C20.6 19.4 21.8 18.4 22.9 19L29 22.3C29.6 22.6 30.3 22.6 31 22.3L32 21.7L33 22.3C33.7 22.6 34.4 22.6 35 22.3L41.1 19C42.2 18.4 43.4 19.4 43 20.5L40.5 27.5"
    fill="#111827"
  />
  <path
    d="M20.5 33C20.5 26.1 26.1 20.5 33 20.5C39.9 20.5 45.5 26.1 45.5 33C45.5 39.9 39.9 45.5 33 45.5C26.1 45.5 20.5 39.9 20.5 33Z"
    fill="#111827"
  />

  <!-- Solid notification dot -->
  <circle cx="45.5" cy="20.5" r="5" fill="#111827" />
</svg>

