<svg width="64" height="64" viewBox="0 0 64 64" fill="none" xmlns="http://www.w3.org/2000/svg">
  <defs>
    <linearGradient id="bg" x1="12" y1="8" x2="52" y2="56" gradientUnits="userSpaceOnUse">
      <stop stop-color="#111827" />
      <stop offset="1" stop-color="#1F2937" />
    </linearGradient>
    <linearGradient id="accent" x1="18" y1="12" x2="46" y2="52" gradientUnits="userSpaceOnUse">
      <stop stop-color="#8B5CF6" />
      <stop offset="1" stop-color="#A78BFA" />
    </linearGradient>
  </defs>

  <rect x="6" y="6" width="52" height="52" rx="14" fill="url(#bg)" />
  <rect x="6" y="6" width="52" height="52" rx="14" stroke="rgba(255,255,255,0.08)" stroke-width="2" />

  <!-- Cat head -->
  <path
    d="M23.5 27.5L21 20.5C20.6 19.4 21.8 18.4 22.9 19L29 22.3C29.6 22.6 30.3 22.6 31 22.3L32 21.7L33 22.3C33.7 22.6 34.4 22.6 35 22.3L41.1 19C42.2 18.4 43.4 19.4 43 20.5L40.5 27.5"
    fill="url(#accent)"
  />
  <path
    d="M20.5 31.5C20.5 25.7 25.2 21 31 21H33C38.8 21 43.5 25.7 43.5 31.5V35C43.5 42.2 37.7 48 30.5 48H33.5C40.7 48 46.5 42.2 46.5 35V31.5C46.5 24 40.5 18 33 18H31C23.5 18 17.5 24 17.5 31.5V35C17.5 42.2 23.3 48 30.5 48H33.5"
    fill="rgba(255,255,255,0.06)"
  />
  <path
    d="M20.5 33C20.5 26.1 26.1 20.5 33 20.5C39.9 20.5 45.5 26.1 45.5 33C45.5 39.9 39.9 45.5 33 45.5C26.1 45.5 20.5 39.9 20.5 33Z"
    fill="url(#accent)"
  />

  <!-- Face details -->
  <path d="M28 34.5C28 33.7 28.7 33 29.5 33C30.3 33 31 33.7 31 34.5C31 35.3 30.3 36 29.5 36C28.7 36 28 35.3 28 34.5Z" fill="#111827" />
  <path d="M35 34.5C35 33.7 35.7 33 36.5 33C37.3 33 38 33.7 38 34.5C38 35.3 37.3 36 36.5 36C35.7 36 35 35.3 35 34.5Z" fill="#111827" />
  <path
    d="M33 36.5C31.7 36.5 30.7 37.1 30 38C29.7 38.4 30 39 30.5 39H35.5C36 39 36.3 38.4 36 38C35.3 37.1 34.3 36.5 33 36.5Z"
    fill="#111827"
    fill-opacity="0.9"
  />

  <!-- Alert badge -->
  <circle cx="44.5" cy="22.5" r="7" fill="#FFFFFF" />
  <circle cx="44.5" cy="22.5" r="5" fill="#F59E0B" />
</svg>
